<svg xmlns="http://www.w3.org/2000/svg" viewBox="0 0 120 120" role="img" aria-labelledby="title desc">
  <title id="title">Kolaq Alagbo International logo</title>
  <desc id="desc">Circular emblem with mortar, pestle, and leaves.</desc>
  <defs>
    <linearGradient id="shadow" x1="0" x2="1" y1="1" y2="0">
      <stop offset="0" stop-color="#0f172a" stop-opacity="0.25" />
      <stop offset="1" stop-color="#0f172a" stop-opacity="0.05" />
    </linearGradient>
  </defs>
  <circle cx="60" cy="60" r="58" fill="#ffffff" stroke="#0f172a" stroke-width="4" />
  <g transform="translate(20 30)">
    <path d="M10 40c12 8 68 8 80 0" fill="url(#shadow)" opacity="0.25" />
  </g>
  <g transform="translate(18 28)">
    <path d="M22 54h40c10 0 18-6 18-14v-2H18v2c0 8 8 14 18 14z" fill="#0f172a" />
    <path d="M67 26c0 9-6 16-14 16s-14-7-14-16 6-16 14-16 14 7 14 16z" fill="#22c55e" />
    <path d="M50 26c0 9-6 16-14 16-5 0-10-3-12-8 4-11 14-18 26-18 4 0 8 1 12 2-7 2-12 8-12 16z" fill="#15803d" />
    <path d="M68 11c-2 8-9 13-16 13-2 0-4 0-6-1 3-7 9-12 16-12 2 0 4 0 6 0z" fill="#0f172a" />
  </g>
  <g fill="#0f172a" font-family="Poppins, Arial, sans-serif" font-size="9" font-weight="600" letter-spacing="3" text-anchor="middle">
    <text x="60" y="18">KOLAQ ALAGBO</text>
    <text x="60" y="110">INTERNATIONAL</text>
  </g>
</svg>