<svg width="60" height="40" viewBox="0 0 60 40" fill="none" xmlns="http://www.w3.org/2000/svg">
  <rect width="60" height="40" rx="4" fill="#1434CB"/>
  <path d="M26.384 27.188h-3.645l2.283-14.089h3.645L26.384 27.188zm-5.775 0l-3.531-11.91-.424 2.098-1.293 6.681-.139.608s-.062.523-.662.523h-5.926L8.5 13.52s.372-.421 1.41-.421c1.037 0 5.065.021 5.065.021l1.682 6.35 4.277-6.35h3.845l-5.962 13.068h-3.208zm19.735 0h-3.259l-5.24-14.089h3.478l2.977 8.327 1.732-8.327h3.478L40.344 27.188zm11.125-6.794c0 3.582-4.953 3.782-4.921 5.41.011.492.481.864 1.508.977.507.056 1.909.099 3.496-.615l.623 2.908c-.853.312-1.95.611-3.318.611-3.509 0-5.975-1.863-5.996-4.529-.024-1.971 1.761-3.07 3.105-3.726 1.383-.674 1.848-1.106 1.842-1.708-.009-.923-1.105-1.333-2.129-1.349-1.787-.029-2.823.482-3.648.867l-.644-3.01c.829-.381 2.361-.714 3.953-.73 3.723 0 6.158 1.837 6.179 4.688l-.05.206z" fill="white"/>
</svg>
