<svg width="512" height="512" viewBox="0 0 512 512" xmlns="http://www.w3.org/2000/svg" fill="none">
  <defs>
    <linearGradient id="g4" x1="0" y1="1" x2="1" y2="0">
      <stop offset="0%" stop-color="#10b981" />
      <stop offset="100%" stop-color="#facc15" />
    </linearGradient>
  </defs>
  <rect width="512" height="512" rx="48" fill="#000" />
  <circle cx="150" cy="200" r="110" fill="#22c55e" opacity="0.25" />
  <circle cx="362" cy="210" r="130" fill="#facc15" opacity="0.25" />
  <path d="M224 120h64c13.255 0 24 10.745 24 24v256c0 13.255-10.745 24-24 24h-64c-13.255 0-24-10.745-24-24V144c0-13.255 10.745-24 24-24z" fill="#0f172a" />
  <path d="M234 150h44c8.837 0 16 7.163 16 16v200c0 8.837-7.163 16-16 16h-44c-8.837 0-16-7.163-16-16V166c0-8.837 7.163-16 16-16z" fill="url(#g4)" />
  <rect x="244" y="134" width="24" height="12" rx="6" fill="#f8fafc" opacity="0.5" />
  <text x="50%" y="420" text-anchor="middle" fill="#f8fafc" font-family="'Poppins', sans-serif" font-size="32" font-weight="600">Citrus Leaf</text>
</svg>
