<svg width="512" height="512" viewBox="0 0 512 512" xmlns="http://www.w3.org/2000/svg" fill="none">
  <defs>
    <radialGradient id="g3" cx="50%" cy="30%" r="70%">
      <stop offset="0%" stop-color="#f59e0b" stop-opacity="0.6" />
      <stop offset="100%" stop-color="#111827" />
    </radialGradient>
  </defs>
  <rect width="512" height="512" rx="48" fill="#020202" />
  <circle cx="260" cy="200" r="160" fill="url(#g3)" opacity="0.6" />
  <path d="M228 100h56c15.464 0 28 12.536 28 28v272c0 15.464-12.536 28-28 28h-56c-15.464 0-28-12.536-28-28V128c0-15.464 12.536-28 28-28z" fill="#111827" />
  <path d="M236 142h40c9.941 0 18 8.059 18 18v200c0 9.941-8.059 18-18 18h-40c-9.941 0-18-8.059-18-18V160c0-9.941 8.059-18 18-18z" fill="#1f2937" />
  <path d="M236 220h40v116h-40z" fill="#fde68a" opacity="0.6" />
  <text x="50%" y="420" text-anchor="middle" fill="#f8fafc" font-family="'Poppins', sans-serif" font-size="32" font-weight="600">Noir Botanica</text>
</svg>
